<svg width="171" height="26" viewBox="0 0 171 26" fill="none" xmlns="http://www.w3.org/2000/svg">
<g id="Vector">
<path d="M7.1095 25.9663C5.80986 25.9663 4.61853 25.6414 3.5355 24.9916C2.47653 24.3177 1.62214 23.4392 0.97232 22.3562C0.346568 21.2491 0.0336914 20.0337 0.0336914 18.71V17.0493C0.0336914 16.929 0.0938599 16.8688 0.214197 16.8688H4.25752C4.35379 16.8688 4.40192 16.929 4.40192 17.0493V18.71C4.40192 19.5042 4.66666 20.1901 5.19615 20.7677C5.72563 21.3213 6.36342 21.5981 7.1095 21.5981C7.85559 21.5981 8.49338 21.3093 9.02286 20.7316C9.55235 20.154 9.81709 19.4801 9.81709 18.71C9.81709 17.8195 9.23947 17.0493 8.08423 16.3995C7.69916 16.1829 7.09747 15.846 6.27918 15.3887C5.46089 14.9314 4.69073 14.4982 3.96871 14.089C2.645 13.3189 1.65824 12.3562 1.00842 11.201C0.382669 10.0217 0.0697925 8.69795 0.0697925 7.22984C0.0697925 5.88207 0.394702 4.6787 1.04452 3.61973C1.69434 2.5367 2.54873 1.68231 3.6077 1.05656C4.69073 0.430802 5.858 0.117926 7.1095 0.117926C8.38508 0.117926 9.55234 0.442836 10.6113 1.09266C11.6943 1.71841 12.5487 2.5728 13.1745 3.65583C13.8243 4.7148 14.1492 5.90613 14.1492 7.22984V10.1901C14.1492 10.2864 14.1011 10.3345 14.0048 10.3345H9.96149C9.86522 10.3345 9.81709 10.2864 9.81709 10.1901L9.78098 7.22984C9.78098 6.38748 9.51624 5.70156 8.98676 5.17208C8.45728 4.6426 7.83153 4.37785 7.1095 4.37785C6.36342 4.37785 5.72563 4.66666 5.19615 5.24428C4.66666 5.79783 4.40192 6.45968 4.40192 7.22984C4.40192 8.02406 4.57039 8.68592 4.90734 9.2154C5.24428 9.74488 5.858 10.2503 6.74849 10.7316C6.86883 10.8038 7.09747 10.9362 7.43441 11.1288C7.79542 11.2972 8.1805 11.5018 8.58965 11.7425C8.99879 11.9591 9.35981 12.1516 9.67268 12.3201C10.0096 12.4886 10.2142 12.5969 10.2864 12.645C11.4898 13.3189 12.4404 14.1492 13.1384 15.136C13.8363 16.0987 14.1853 17.29 14.1853 18.71C14.1853 20.0818 13.8604 21.3213 13.2106 22.4284C12.5848 23.5114 11.7304 24.3779 10.6474 25.0277C9.58845 25.6534 8.40914 25.9663 7.1095 25.9663Z" fill="white"/>
<path d="M16.8404 25.6053C16.7442 25.6053 16.696 25.5451 16.696 25.4248L16.7321 0.623341C16.7321 0.527072 16.7923 0.478937 16.9126 0.478937H20.9199C21.0402 0.478937 21.1004 0.527072 21.1004 0.623341L21.0643 10.4428H26.4794V0.623341C26.4794 0.527072 26.5276 0.478937 26.6238 0.478937H30.6311C30.7514 0.478937 30.8116 0.527072 30.8116 0.623341L30.8838 25.4248C30.8838 25.5451 30.8236 25.6053 30.7033 25.6053H26.6599C26.5396 25.6053 26.4794 25.5451 26.4794 25.4248V14.8111H21.0643V25.4248C21.0643 25.5451 21.0161 25.6053 20.9199 25.6053H16.8404Z" fill="white"/>
<path d="M34.0105 25.6053C33.8901 25.6053 33.8299 25.5451 33.8299 25.4248L33.8661 0.623341C33.8661 0.527072 33.9142 0.478937 34.0105 0.478937H38.0538C38.15 0.478937 38.1982 0.527072 38.1982 0.623341L38.2343 25.4248C38.2343 25.5451 38.1861 25.6053 38.0899 25.6053H34.0105Z" fill="white"/>
<path d="M41.7347 25.6053C41.5421 25.6053 41.4459 25.5211 41.4459 25.3526L41.4098 0.767746C41.4098 0.575206 41.506 0.478937 41.6986 0.478937H44.9477L51.0488 14.7028L50.8682 0.767746C50.8682 0.575206 50.9766 0.478937 51.1932 0.478937H54.7672C54.9116 0.478937 54.9838 0.575206 54.9838 0.767746L55.0199 25.3887C55.0199 25.5331 54.9597 25.6053 54.8394 25.6053H51.6625L45.417 12.3201L45.6697 25.3165C45.6697 25.509 45.5614 25.6053 45.3448 25.6053H41.7347Z" fill="white"/>
<path d="M58.3003 25.6053C58.204 25.6053 58.1559 25.5451 58.1559 25.4248L58.192 0.623341C58.192 0.527072 58.2401 0.478937 58.3364 0.478937H69.9248C70.0211 0.478937 70.0692 0.539105 70.0692 0.659442V4.70276C70.0692 4.79903 70.0211 4.84717 69.9248 4.84717H62.5241V10.4789H69.9248C70.0211 10.4789 70.0692 10.5271 70.0692 10.6233L70.1053 14.7028C70.1053 14.799 70.0572 14.8472 69.9609 14.8472H62.5241V21.1649H69.9609C70.0572 21.1649 70.1053 21.225 70.1053 21.3454V25.4609C70.1053 25.5572 70.0572 25.6053 69.9609 25.6053H58.3003Z" fill="white"/>
<path d="M76.3136 13.5716H100.381V16.58H76.3136V13.5716Z" fill="white"/>
<path d="M125.191 14.0403C126.339 14.7306 127.589 15.0758 128.942 15.0758C130.345 15.0758 131.608 14.7306 132.731 14.0403C133.879 13.35 134.785 12.4168 135.449 11.2407C136.138 10.0646 136.482 8.76065 136.482 7.32888L136.409 0.187096C136.409 0.0848262 136.358 0.0336914 136.256 0.0336914H131.969C131.867 0.0336914 131.816 0.0848262 131.816 0.187096L131.813 7.32888C131.813 8.19817 131.532 8.93963 130.97 9.55324C130.435 10.1413 129.758 10.4353 128.942 10.4353C128.151 10.4353 127.475 10.1413 126.913 9.55324C126.377 8.93963 126.11 8.19817 126.11 7.32888L126.113 0.187096C126.113 0.0848262 126.062 0.0336914 125.96 0.0336914H121.673C121.571 0.0336914 121.52 0.0848262 121.52 0.187096L121.44 7.32888C121.44 8.73509 121.772 10.0262 122.435 11.2023C123.124 12.3784 124.043 13.3244 125.191 14.0403Z" fill="white"/>
<path d="M126.086 25.6053H121.458L121.493 16.7334C121.493 16.6311 121.544 16.58 121.646 16.58H125.933C126.035 16.58 126.086 16.6311 126.086 16.7334V25.6053Z" fill="white"/>
<path d="M136.382 16.7334L136.418 25.6053H131.789V16.7334C131.789 16.6311 131.84 16.58 131.942 16.58H136.229C136.331 16.58 136.382 16.6311 136.382 16.7334Z" fill="white"/>
<path d="M104.928 25.4248L109.405 0.623341C109.429 0.527072 109.489 0.478937 109.585 0.478937H114.82C114.916 0.478937 114.976 0.527072 115 0.623341L119.296 25.4248C119.32 25.5451 119.272 25.6053 119.152 25.6053H115.145C115.048 25.6053 114.988 25.5451 114.964 25.4248L114.567 22.7894H109.657L109.26 25.4248C109.236 25.5451 109.176 25.6053 109.08 25.6053H105.072C104.976 25.6053 104.928 25.5451 104.928 25.4248ZM110.379 18.9266H113.845L112.365 8.78219L112.148 7.44645L112.004 8.78219L110.379 18.9266Z" fill="white"/>
<path d="M156.071 25.4248L160.548 0.623341C160.572 0.527072 160.632 0.478937 160.728 0.478937H165.963C166.059 0.478937 166.119 0.527072 166.143 0.623341L170.44 25.4248C170.464 25.5451 170.415 25.6053 170.295 25.6053H166.288C166.192 25.6053 166.131 25.5451 166.107 25.4248L165.71 22.7894H160.801L160.403 25.4248C160.379 25.5451 160.319 25.6053 160.223 25.6053H156.216C156.119 25.6053 156.071 25.5451 156.071 25.4248ZM161.523 18.9266H164.988L163.508 8.78219L163.292 7.44645L163.147 8.78219L161.523 18.9266Z" fill="white"/>
<path d="M139.892 25.6053C139.796 25.6053 139.748 25.5451 139.748 25.4248L139.82 0.623341C139.82 0.527072 139.868 0.478937 139.964 0.478937H147.257C148.556 0.478937 149.748 0.803847 150.831 1.45367C151.938 2.07942 152.816 2.93381 153.466 4.01684C154.116 5.07581 154.441 6.27918 154.441 7.62695C154.441 8.51744 154.308 9.3237 154.044 10.0457C153.779 10.7437 153.466 11.3454 153.105 11.8508C152.744 12.3321 152.419 12.6931 152.13 12.9338C153.43 14.3779 154.08 16.0746 154.08 18.0241L154.116 25.4248C154.116 25.5451 154.056 25.6053 153.935 25.6053H149.856C149.76 25.6053 149.712 25.5692 149.712 25.497V18.0241C149.712 17.1576 149.399 16.4116 148.773 15.7858C148.171 15.136 147.425 14.8111 146.535 14.8111H144.152L144.116 25.4248C144.116 25.5451 144.068 25.6053 143.971 25.6053H139.892ZM144.152 10.4789H147.257C148.003 10.4789 148.665 10.2022 149.242 9.64861C149.82 9.09506 150.109 8.42118 150.109 7.62695C150.109 6.85679 149.82 6.19494 149.242 5.64139C148.689 5.08784 148.027 4.81107 147.257 4.81107H144.152V10.4789Z" fill="white"/>
</g>
</svg>
